<?xml version="1.0" encoding="utf-8"?>
<!-- Generator: Adobe Illustrator 18.1.0, SVG Export Plug-In . SVG Version: 6.00 Build 0)  -->
<!DOCTYPE svg PUBLIC "-//W3C//DTD SVG 1.1//EN" "http://www.w3.org/Graphics/SVG/1.1/DTD/svg11.dtd">
<svg version="1.1" id="Layer_1" xmlns="http://www.w3.org/2000/svg" xmlns:xlink="http://www.w3.org/1999/xlink" x="0px" y="0px"
	 viewBox="0 0 24 24" enable-background="new 0 0 24 24" xml:space="preserve">
<g>
	<path fill="#FFC327" d="M21.6,3.1v10.3L12,7.9H2.4V3.1C2.4,1.9,3.3,1,4.4,1h15.1C20.7,1,21.6,1.9,21.6,3.1z M19.6,5.8V3.1
		c0-0.4-0.3-0.7-0.7-0.7h-5.5c-0.4,0-0.7,0.3-0.7,0.7v2.7c0,0.4,0.3,0.7,0.7,0.7h5.5C19.3,6.5,19.6,6.2,19.6,5.8z M11.3,5.8V3.1
		c0-0.4-0.3-0.7-0.7-0.7H5.1c-0.4,0-0.7,0.3-0.7,0.7v2.7c0,0.4,0.3,0.7,0.7,0.7h5.5C11,6.5,11.3,6.2,11.3,5.8z"/>
	<path fill="#FFC327" d="M21.6,13.4v7.6c0,1.1-0.9,2.1-2.1,2.1H4.4c-1.1,0-2.1-0.9-2.1-2.1V8.2H12v5.2H21.6L21.6,13.4z"/>
</g>
</svg>
