<?xml version="1.0" encoding="utf-8"?>
<!-- Generator: Adobe Illustrator 18.1.0, SVG Export Plug-In . SVG Version: 6.00 Build 0)  -->
<!DOCTYPE svg PUBLIC "-//W3C//DTD SVG 1.1//EN" "http://www.w3.org/Graphics/SVG/1.1/DTD/svg11.dtd">
<svg version="1.1" id="Layer_1" xmlns="http://www.w3.org/2000/svg" xmlns:xlink="http://www.w3.org/1999/xlink" x="0px" y="0px"
	 viewBox="-83 35 32 32" enable-background="new -83 35 32 32" xml:space="preserve">
<g>
	<path fill="#FFFFFF" d="M-66.6,53.4c-0.9-0.6-2.6-2.2-2.6-3.1c0-1.1,0.3-1.6,1.9-2.8c1.6-1.3,2.8-3.4,2.8-5.5c0-2.5-1.1-4-3.2-6
		h3.1l2.2-1c0,0-7.4,0-9.9,0c-4.4,0-8.6,3.4-8.6,7.3c0,4,3,7.2,7.6,7.2c0.3,0,0.6,0,0.9,0c-0.3,0.6-0.5,1.2-0.5,1.8
		c0,1.1,0.6,2,1.3,2.7c-0.6,0-1.1,0-1.7,0c-5.5,0-9.7,3.5-9.7,7.1c0,3.6,4.6,5.8,10.1,5.8c6.3,0,9.7-3.6,9.7-7.1
		C-63.1,57-64,55.3-66.6,53.4z M-71.9,48.4c-2.6-0.1-5-2.9-5.4-6.2c-0.4-3.4,1.3-5.9,3.8-5.8c2.6,0.1,5,2.8,5.4,6.1
		C-67.6,45.9-69.3,48.5-71.9,48.4z M-72.9,65.4c-3.8,0-6.6-2.4-6.6-5.3c0-2.8,3.4-5.2,7.2-5.2c0.9,0,1.7,0.2,2.5,0.4
		c2.1,1.4,3.5,2.2,4,3.9c0.1,0.3,0.1,0.7,0.1,1C-65.7,63.2-67.5,65.4-72.9,65.4z"/>
	<polygon fill="#FFFFFF" points="-56,49 -56,44 -58,44 -58,49 -63,49 -63,51 -58,51 -58,56 -56,56 -56,51 -51,51 -51,49 	"/>
</g>
</svg>
