<?xml version="1.0" encoding="utf-8"?>
<!-- Generator: Adobe Illustrator 18.1.0, SVG Export Plug-In . SVG Version: 6.00 Build 0)  -->
<!DOCTYPE svg PUBLIC "-//W3C//DTD SVG 1.1//EN" "http://www.w3.org/Graphics/SVG/1.1/DTD/svg11.dtd">
<svg version="1.1" id="Layer_1" xmlns="http://www.w3.org/2000/svg" xmlns:xlink="http://www.w3.org/1999/xlink" x="0px" y="0px"
	 viewBox="0 0 16 16" enable-background="new 0 0 16 16" xml:space="preserve">
<g>
	<path fill="#222222" d="M16,8c0,2.1,0,4.1,0,6.2c0,0.9-0.5,1.6-1.3,1.7C14.3,16,13.9,16,13.5,16c-2.3,0-4.7,0-7,0
		c-1.6,0-3.2,0-4.8,0C0.7,16,0,15.3,0,14.3c0-2.1,0-4.1,0-6.2C0,6.1,0,4,0,1.9c0-0.6,0.2-1.2,0.7-1.6C1,0.1,1.3,0,1.7,0
		c1.3,0,2.6,0,3.8,0c2.3,0,4.6,0,6.9,0c0.6,0,1.3,0,1.9,0C15.3,0,16,0.7,16,1.7C16,3.8,16,5.9,16,8C16,8,16,8,16,8z M14.9,3.5
		c-4.6,0-9.2,0-13.8,0c0,0.1,0,0.2,0,0.3c0,0.6,0,1.3,0,1.9c0,2.9,0,5.7,0,8.6c0,0.3,0.2,0.6,0.6,0.6c0.5,0,1,0,1.5,0
		c2,0,3.9,0,5.9,0c1.7,0,3.5,0,5.2,0c0.3,0,0.5-0.2,0.6-0.5c0-0.1,0-0.2,0-0.2c0-1.3,0-2.5,0-3.8c0-2.1,0-4.1,0-6.2
		C14.9,3.9,14.9,3.7,14.9,3.5z M10.8,1.8c0,0.3,0.3,0.6,0.6,0.6c0.3,0,0.6-0.3,0.6-0.6c0-0.3-0.3-0.6-0.6-0.6
		C11.1,1.2,10.8,1.5,10.8,1.8z M5.2,1.9c0-0.4-0.3-0.6-0.6-0.7c-0.4,0-0.7,0.3-0.7,0.6c0,0.3,0.3,0.6,0.6,0.6
		C4.9,2.5,5.2,2.2,5.2,1.9z"/>
	<path fill="#222222" d="M7.1,9.1C7.4,9.3,7.7,9.6,7.9,10c0.4,0.9,0,2.1-1,2.5c-0.6,0.3-1.2,0.3-1.9,0.2c-0.4-0.1-0.8-0.2-1.1-0.4
		c-0.2-0.1-0.2-0.2-0.1-0.4c0.1-0.2,0.1-0.4,0.2-0.6c0.1-0.2,0.2-0.3,0.4-0.2c0.5,0.3,1,0.4,1.6,0.3c0.4-0.1,0.6-0.4,0.7-0.8
		c0-0.4-0.2-0.7-0.5-0.8C5.8,9.7,5.4,9.7,5,9.7c-0.4,0-0.4-0.1-0.4-0.4c0-0.1,0-0.3,0-0.4c0-0.2,0.1-0.3,0.3-0.3
		c0.3,0,0.6,0,0.9-0.1c0.1,0,0.2-0.1,0.3-0.1c0.2-0.2,0.4-0.4,0.3-0.7C6.3,7.4,6.1,7.2,5.8,7.2C5.4,7.1,5,7.2,4.6,7.5
		C4.4,7.6,4.2,7.6,4.1,7.3C4,7.1,4,7,3.9,6.8C3.9,6.7,3.9,6.5,4,6.5c0.9-0.5,1.8-0.7,2.7-0.3c1.2,0.5,1.4,2,0.4,2.8
		C7.2,9,7.1,9,7.1,9.1z"/>
	<path fill="#222222" d="M10.1,7.5C9.9,7.7,9.7,7.8,9.5,7.9C9.2,8,9,7.9,9,7.6c0-0.2-0.1-0.3-0.1-0.5c0-0.2,0-0.3,0.2-0.4
		c0.4-0.2,0.8-0.5,1.3-0.7c0.3-0.1,0.6-0.1,0.9,0c0.2,0,0.2,0.2,0.2,0.3c0,0.6,0,1.2,0,1.8c0,1.4,0,2.7,0,4.1c0,0.3-0.1,0.4-0.4,0.4
		c-0.2,0-0.4,0-0.6,0c-0.3,0-0.4-0.1-0.4-0.4c0-1.5,0-3,0-4.5C10.1,7.7,10.1,7.7,10.1,7.5z"/>
</g>
</svg>
