<?xml version="1.0" encoding="utf-8"?>
<!-- Generator: Adobe Illustrator 18.1.0, SVG Export Plug-In . SVG Version: 6.00 Build 0)  -->
<!DOCTYPE svg PUBLIC "-//W3C//DTD SVG 1.1//EN" "http://www.w3.org/Graphics/SVG/1.1/DTD/svg11.dtd">
<svg version="1.1" id="Layer_1" xmlns="http://www.w3.org/2000/svg" xmlns:xlink="http://www.w3.org/1999/xlink" x="0px" y="0px"
	 viewBox="0 0 16 16" enable-background="new 0 0 16 16" xml:space="preserve">
<g>
	<path fill="#FFFFFF" d="M14.4,2.1v6.9L8,5.3H1.6V2.1c0-0.8,0.6-1.4,1.3-1.4H13C13.8,0.7,14.4,1.3,14.4,2.1z M13.1,3.9V2.1
		c0-0.3-0.2-0.5-0.5-0.5H8.9c-0.3,0-0.5,0.2-0.5,0.5v1.8c0,0.3,0.2,0.5,0.5,0.5h3.7C12.9,4.3,13.1,4.1,13.1,3.9z M7.5,3.9V2.1
		c0-0.3-0.2-0.5-0.5-0.5H3.4c-0.3,0-0.5,0.2-0.5,0.5v1.8c0,0.3,0.2,0.5,0.5,0.5h3.7C7.3,4.3,7.5,4.1,7.5,3.9z"/>
	<path fill="#FFFFFF" d="M14.4,8.9V14c0,0.7-0.6,1.4-1.4,1.4H2.9c-0.7,0-1.4-0.6-1.4-1.4V5.5H8v3.5H14.4L14.4,8.9z"/>
</g>
</svg>
