<?xml version="1.0" encoding="utf-8"?>
<!-- Generator: Adobe Illustrator 18.1.0, SVG Export Plug-In . SVG Version: 6.00 Build 0)  -->
<!DOCTYPE svg PUBLIC "-//W3C//DTD SVG 1.1//EN" "http://www.w3.org/Graphics/SVG/1.1/DTD/svg11.dtd">
<svg version="1.1" id="Layer_1" xmlns="http://www.w3.org/2000/svg" xmlns:xlink="http://www.w3.org/1999/xlink" x="0px" y="0px"
	 viewBox="-71 22.3 56.7 56.7" enable-background="new -71 22.3 56.7 56.7" xml:space="preserve">
<g>
	<path fill="#FFFFFF" d="M-27.1,50.5h-31.1c-4.9,0-9,4-9,9v7.2c0,4.9,4,9,9,9h31.1c4.9,0,9-4,9-9v-7.2
		C-18.1,54.5-22.1,50.5-27.1,50.5z M-51.7,56.1h-2.9v14.4h-2.8V56.1h-2.9v-2.4h8.6C-51.7,53.7-51.7,56.1-51.7,56.1z M-43.5,70.5H-46
		v-1.4c-0.5,0.5-0.9,0.9-1.4,1.1c-0.5,0.3-1,0.4-1.4,0.4c-0.6,0-1-0.2-1.3-0.6c-0.3-0.4-0.4-0.9-0.4-1.7V58.1h2.5v9.5
		c0,0.3,0.1,0.5,0.2,0.6c0.1,0.1,0.3,0.2,0.5,0.2c0.2,0,0.4-0.1,0.7-0.3c0.3-0.2,0.5-0.4,0.8-0.7v-9.4h2.5V70.5z M-34.5,67.9
		c0,0.9-0.2,1.6-0.6,2c-0.4,0.5-1,0.7-1.7,0.7c-0.5,0-0.9-0.1-1.3-0.3c-0.4-0.2-0.7-0.5-1.1-0.8v1h-2.5V53.7h2.5v5.4
		c0.3-0.4,0.7-0.7,1.1-0.9c0.4-0.2,0.8-0.3,1.1-0.3c0.8,0,1.4,0.3,1.8,0.8c0.4,0.5,0.6,1.3,0.6,2.3L-34.5,67.9L-34.5,67.9z
		 M-25.9,64.6h-4.7v2.3c0,0.7,0.1,1.1,0.2,1.4c0.2,0.3,0.4,0.4,0.8,0.4c0.4,0,0.7-0.1,0.9-0.3c0.2-0.2,0.2-0.7,0.2-1.4v-0.6h2.6V67
		c0,1.3-0.3,2.2-0.9,2.9c-0.6,0.6-1.5,1-2.8,1c-1.1,0-2-0.3-2.6-1c-0.6-0.7-1-1.6-1-2.8v-5.6c0-1.1,0.4-2,1.1-2.6
		c0.7-0.7,1.6-1,2.7-1c1.1,0,2,0.3,2.6,0.9c0.6,0.6,0.9,1.5,0.9,2.7V64.6z"/>
	<path fill="#FFFFFF" d="M-29.5,60c-0.4,0-0.7,0.1-0.8,0.3c-0.2,0.2-0.3,0.6-0.3,1.1v1.3h2.2v-1.3c0-0.5-0.1-0.9-0.3-1.1
		C-28.9,60.1-29.2,60-29.5,60z"/>
	<path fill="#FFFFFF" d="M-38.1,59.9c-0.2,0-0.4,0-0.5,0.1c-0.2,0.1-0.3,0.2-0.5,0.4v7.7c0.2,0.2,0.4,0.4,0.6,0.4
		c0.2,0.1,0.4,0.1,0.6,0.1c0.3,0,0.5-0.1,0.7-0.3c0.1-0.2,0.2-0.5,0.2-0.9v-6.4c0-0.4-0.1-0.7-0.3-1C-37.5,60-37.8,59.9-38.1,59.9z"
		/>
	<polygon fill="#FFFFFF" points="-54.1,46.2 -51,46.2 -51,38.5 -47.3,27.7 -50.5,27.7 -52.5,35.1 -52.7,35.1 -54.7,27.7 -57.9,27.7 
		-54.1,38.9 	"/>
	<path fill="#FFFFFF" d="M-43.1,46.5c1.3,0,2.3-0.3,3-1c0.7-0.7,1.1-1.6,1.1-2.8v-7.1c0-1-0.4-1.9-1.1-2.6c-0.7-0.7-1.7-1-2.8-1
		c-1.3,0-2.3,0.3-3,0.9c-0.8,0.6-1.1,1.5-1.1,2.5v7.1c0,1.2,0.4,2.1,1.1,2.8C-45.3,46.2-44.3,46.5-43.1,46.5z M-44.2,35.6
		c0-0.3,0.1-0.5,0.3-0.7c0.2-0.2,0.5-0.3,0.8-0.3c0.4,0,0.7,0.1,0.9,0.3c0.2,0.2,0.3,0.4,0.3,0.7V43c0,0.4-0.1,0.7-0.3,0.9
		c-0.2,0.2-0.5,0.3-0.9,0.3c-0.4,0-0.7-0.1-0.9-0.3c-0.2-0.2-0.3-0.5-0.3-0.9L-44.2,35.6L-44.2,35.6z"/>
	<path fill="#FFFFFF" d="M-34.8,46.4c0.5,0,1.1-0.2,1.6-0.4c0.6-0.3,1.1-0.7,1.6-1.3v1.5h2.8V32.5h-2.8v10.4
		c-0.3,0.3-0.5,0.5-0.9,0.7c-0.3,0.2-0.6,0.3-0.8,0.3c-0.3,0-0.5-0.1-0.6-0.2c-0.1-0.1-0.2-0.4-0.2-0.7V32.5h-2.8V44
		c0,0.8,0.2,1.4,0.5,1.8C-35.9,46.2-35.4,46.4-34.8,46.4z"/>
</g>
</svg>
