<?xml version="1.0" encoding="utf-8"?>
<!-- Generator: Adobe Illustrator 18.1.0, SVG Export Plug-In . SVG Version: 6.00 Build 0)  -->
<!DOCTYPE svg PUBLIC "-//W3C//DTD SVG 1.1//EN" "http://www.w3.org/Graphics/SVG/1.1/DTD/svg11.dtd">
<svg version="1.1" id="Layer_1" xmlns="http://www.w3.org/2000/svg" xmlns:xlink="http://www.w3.org/1999/xlink" x="0px" y="0px"
	 viewBox="0 0 24 24" enable-background="new 0 0 24 24" xml:space="preserve">
<g>
	<path fill="#FFC327" d="M8.7,2.9C7.9,2.8,5.9,4.6,5.7,5.8C5.6,6.9,5.2,7.4,3.5,7.9c-1.7,0.5-4.7,2.1-3,4.5c2.8,4.1,2,6.1,4,5.6
		c2-0.5,5.3-4.4,7.5-3.2c2.1,1.2,1.5,3.4,2.4,3.3c1-0.1,0.9,0.1,1.5,0.7c0.6,0.6,3.9,2.3,5.3-0.3c1.4-2.6,3.1-3.7,2.7-6.5
		c-0.5-2.8-3.2-4-3.5-5.9c-0.4-1.9-0.1-1.9-0.7-2.3c-0.7-0.4-0.8-0.7-0.9-1.9c-0.1-1.2-0.7-1-0.9-0.3c-0.2,0.7-0.1,3.9-1.2,3.6
		c-1-0.4-3.1-0.6-2.4-2.3c0.8-1.9-0.7-1.5-1.7-1.3c-1.4,0.2-1.7,0.4-2.2,1.2C10,3.6,9.7,3,8.7,2.9z"/>
	<path fill="#FFC327" d="M20,21.1c-0.2-0.4-1.6-0.5-1.8,0c-0.3,0.5,0.1,2,0.8,2C19.9,23,20.2,21.6,20,21.1z"/>
</g>
</svg>
