<?xml version="1.0" encoding="utf-8"?>
<!-- Generator: Adobe Illustrator 18.1.0, SVG Export Plug-In . SVG Version: 6.00 Build 0)  -->
<!DOCTYPE svg PUBLIC "-//W3C//DTD SVG 1.1//EN" "http://www.w3.org/Graphics/SVG/1.1/DTD/svg11.dtd">
<svg version="1.1" id="Layer_1" xmlns="http://www.w3.org/2000/svg" xmlns:xlink="http://www.w3.org/1999/xlink" x="0px" y="0px"
	 viewBox="0 0 24 24" enable-background="new 0 0 24 24" xml:space="preserve">
<g>
	<circle fill="#FFC327" cx="17.5" cy="3" r="2"/>
	<path fill="#FFC327" d="M21.9,5.1c-0.3-0.3-0.9-0.3-1.2,0l-2,2l-2.1-1.9c0,0-0.1,0-0.1,0c-0.1-0.1-0.2-0.2-0.3-0.3l-0.3-0.2
		c-0.2-0.1-0.5-0.2-0.8-0.2c-0.1,0-0.2-0.1-0.4-0.1l-3.4,0.3c-0.1,0-0.2,0-0.2,0.1c-0.2,0-0.4,0.1-0.6,0.3L8,7.6
		C7.7,7.9,7.7,8.4,8,8.8c0.3,0.3,0.9,0.3,1.2,0l2.2-2.3l1.7-0.1l-2.9,4.8l-2.1,3.3c0,0,0,0.1,0,0.1l-4.7-0.9
		c-0.7-0.1-1.4,0.2-1.5,0.8c-0.1,0.6,0.3,1.1,1,1.3l5.7,1.1c0.6,0.1,1.1-0.1,1.4-0.5c0.1-0.1,0.3-0.2,0.4-0.4l1.2-1.9l2.3,2.3
		l-0.8,5.2c-0.1,0.7,0.3,1.4,0.9,1.5c0.6,0.1,1.2-0.4,1.3-1.1l0.9-5.8c0,0,0,0,0,0c0.2-0.5,0.1-1.1-0.2-1.5l-2.4-2.4l2.9-4.8
		l1.6,1.4C18.3,9,18.5,9.1,18.8,9c0.3,0,0.5,0,0.7-0.2l2.4-2.5C22.2,6,22.2,5.5,21.9,5.1z"/>
</g>
</svg>
