<?xml version="1.0" encoding="utf-8"?>
<!-- Generator: Adobe Illustrator 18.1.0, SVG Export Plug-In . SVG Version: 6.00 Build 0)  -->
<!DOCTYPE svg PUBLIC "-//W3C//DTD SVG 1.1//EN" "http://www.w3.org/Graphics/SVG/1.1/DTD/svg11.dtd">
<svg version="1.1" id="Layer_1" xmlns="http://www.w3.org/2000/svg" xmlns:xlink="http://www.w3.org/1999/xlink" x="0px" y="0px"
	 viewBox="0 0 32 32" enable-background="new 0 0 32 32" xml:space="preserve">
<path id="pinterest-icon" fill="#FFFFFF" d="M16.7,0C8,0,3.6,6.3,3.6,11.5c0,3.2,1.2,6,3.8,7c0.4,0.2,0.8,0,0.9-0.5
	c0.1-0.3,0.3-1.1,0.4-1.5c0.1-0.5,0.1-0.6-0.3-1c-0.7-0.9-1.2-2-1.2-3.6c0-4.6,3.5-8.8,9-8.8c4.9,0,7.6,3,7.6,7
	c0,5.3-2.3,9.8-5.8,9.8c-1.9,0-3.4-1.6-2.9-3.5c0.6-2.3,1.6-4.8,1.6-6.5c0-1.5-0.8-2.8-2.5-2.8c-2,0-3.5,2-3.5,4.8
	c0,1.7,0.6,2.9,0.6,2.9s-2,8.5-2.4,10c-0.7,3-0.1,6.6-0.1,7c0,0.2,0.3,0.3,0.4,0.1c0.2-0.2,2.5-3.1,3.3-6c0.2-0.8,1.3-5.1,1.3-5.1
	c0.6,1.2,2.5,2.3,4.5,2.3c5.9,0,9.9-5.4,9.9-12.6C28.4,5.1,23.8,0,16.7,0z"/>
</svg>
