<?xml version="1.0" encoding="utf-8"?>
<!-- Generator: Adobe Illustrator 18.1.0, SVG Export Plug-In . SVG Version: 6.00 Build 0)  -->
<!DOCTYPE svg PUBLIC "-//W3C//DTD SVG 1.1//EN" "http://www.w3.org/Graphics/SVG/1.1/DTD/svg11.dtd">
<svg version="1.1" id="Layer_1" xmlns="http://www.w3.org/2000/svg" xmlns:xlink="http://www.w3.org/1999/xlink" x="0px" y="0px"
	 viewBox="0 0 16 16" enable-background="new 0 0 16 16" xml:space="preserve">
<g>
	<path fill="#FFFFFF" d="M15.3,16c-0.3,0-0.6-0.1-0.9-0.2c-0.3-0.1-0.6-0.2-0.9-0.2c-0.3,0-0.7,0.1-0.9,0.2s-0.7,0.2-1,0.2
		s-0.6-0.1-0.9-0.2c-0.3-0.1-0.6-0.2-0.9-0.2s-0.7,0.1-0.9,0.2C8.6,15.9,8.3,16,8,16s-0.6-0.1-0.9-0.2c-0.3-0.1-0.6-0.2-0.9-0.2
		s-0.7,0.1-0.9,0.2C5,15.9,4.7,16,4.3,16s-0.6-0.1-0.9-0.2c-0.3-0.1-0.6-0.2-0.9-0.2s-0.7,0.1-0.9,0.2C1.3,15.9,1,16,0.7,16v-1.3
		c0.3,0,0.6-0.1,0.9-0.2s0.6-0.2,0.9-0.2s0.7,0.1,0.9,0.2c0.3,0.1,0.6,0.2,0.9,0.2s0.6-0.1,0.9-0.2c0.3-0.1,0.6-0.2,0.9-0.2
		s0.7,0.1,0.9,0.2c0.3,0.1,0.6,0.2,0.9,0.2s0.6-0.1,0.9-0.2c0.3-0.1,0.6-0.2,0.9-0.2c0.3,0,0.7,0.1,0.9,0.2c0.3,0.1,0.6,0.2,0.9,0.2
		c0.3,0,0.6-0.1,0.9-0.2c0.3-0.1,0.6-0.2,0.9-0.2c0.3,0,0.7,0.1,0.9,0.2c0.3,0.1,0.6,0.2,0.9,0.2L15.3,16L15.3,16z"/>
	<path fill="#FFFFFF" d="M10.2,2.4c2.5,1.1,5.3,4.2,4.9,7.9h-4.9L10.2,2.4L10.2,2.4z"/>
	<path fill="#FFFFFF" d="M14.1,11.1h-2.3H3.1v2c0.1,0,0.3,0.1,0.3,0.1c0.3,0.1,0.6,0.2,0.9,0.2c0.3,0,0.6-0.1,0.9-0.2S5.7,13,6.1,13
		c0.3,0,0.7,0.1,0.9,0.2c0.3,0.1,0.6,0.2,0.9,0.2c0.3,0,0.6-0.1,0.9-0.2S9.4,13,9.7,13s0.7,0.1,0.9,0.2c0.3,0.1,0.6,0.2,0.9,0.2
		c0.1,0,0.1,0,0.2,0l0,0c0.1,0,0.1,0,0.1,0c0.1,0,0.1,0,0.2-0.1c0.7-0.1,1.1-0.7,1.1-0.7l1.3-1.6h-0.3V11.1L14.1,11.1z"/>
	<path fill="#FFFFFF" d="M9.5,0L9.5,0L9.5,0L9.5,0C6.6,3.5,3.9,6.9,1.1,10.3c0,0.1,0,0.1,0.1,0.1c2.8,0,5.5,0,8.3,0
		c0,0,0.1,0,0.1-0.1C9.5,6.9,9.5,3.5,9.5,0C9.5,0.1,9.5,0,9.5,0z"/>
</g>
</svg>
