<?xml version="1.0" encoding="utf-8"?>
<!-- Generator: Adobe Illustrator 18.1.0, SVG Export Plug-In . SVG Version: 6.00 Build 0)  -->
<!DOCTYPE svg PUBLIC "-//W3C//DTD SVG 1.1//EN" "http://www.w3.org/Graphics/SVG/1.1/DTD/svg11.dtd">
<svg version="1.1" id="Layer_1" xmlns="http://www.w3.org/2000/svg" xmlns:xlink="http://www.w3.org/1999/xlink" x="0px" y="0px"
	 viewBox="0 0 16 16" enable-background="new 0 0 16 16" xml:space="preserve">
<g>
	<circle fill="#FFFFFF" cx="11.7" cy="2" r="1.3"/>
	<path fill="#FFFFFF" d="M14.6,3.4c-0.2-0.2-0.6-0.2-0.8,0l-1.3,1.3l-1.4-1.3H11c-0.1-0.1-0.1-0.1-0.2-0.2l-0.2-0.1
		C10.5,3.1,10.3,3,10.1,3C10,3,9.9,2.9,9.8,2.9L7.5,3.1c-0.1,0-0.1,0-0.1,0.1C7.3,3.2,7.1,3.3,7,3.4L5.3,5.1c-0.2,0.2-0.2,0.5,0,0.8
		c0.2,0.2,0.6,0.2,0.8,0l1.5-1.5l1.1-0.1L6.8,7.5L5.4,9.7v0.1L2.3,9.1c-0.5-0.1-0.9,0.1-1,0.5c-0.1,0.4,0.2,0.7,0.7,0.9l3.8,0.7
		c0.4,0.1,0.7-0.1,0.9-0.3c0.1-0.1,0.2-0.1,0.3-0.3l0.8-1.3l1.5,1.5l-0.5,3.5c-0.1,0.5,0.2,0.9,0.6,1c0.4,0.1,0.8-0.3,0.9-0.7
		l0.6-3.9l0,0c0.1-0.3,0.1-0.7-0.1-1L9.1,8.2L11,5l1.1,0.9C12.2,6,12.3,6.1,12.5,6c0.2,0,0.3,0,0.5-0.1l1.6-1.7
		C14.8,4,14.8,3.7,14.6,3.4z"/>
</g>
</svg>
