<?xml version="1.0" encoding="utf-8"?>
<!-- Generator: Adobe Illustrator 18.1.0, SVG Export Plug-In . SVG Version: 6.00 Build 0)  -->
<!DOCTYPE svg PUBLIC "-//W3C//DTD SVG 1.1//EN" "http://www.w3.org/Graphics/SVG/1.1/DTD/svg11.dtd">
<svg version="1.1" id="Layer_1" xmlns="http://www.w3.org/2000/svg" xmlns:xlink="http://www.w3.org/1999/xlink" x="0px" y="0px"
	 viewBox="0 0 50 20" enable-background="new 0 0 50 20" xml:space="preserve">
<path fill="#222222" d="M38.5,20l2-7l0-1.9c-0.1,0-0.1,0-0.1,0c-1.6,0-4.1-0.2-6.1-0.4l-1.8,2.9h-0.8l0.7-3.3
	c-0.4-0.1-0.6-0.2-0.6-0.4c0-0.1,0.2-0.3,0.6-0.4l-0.7-3.3h0.8l1.8,2.9c1.9-0.3,4.5-0.4,6.1-0.4c0,0,0.1,0,0.1,0l0-1.9l-2-7h0.9
	l2.5,4.7h0.9C42.9,4.7,43,4.9,43,5v0.9c0,0.2-0.1,0.3-0.3,0.3h-0.1L44,8.8c1.7,0,3.4,0,3.5,0c0.9,0,2.5,0.5,2.5,1.2
	c0,0.7-1.6,1.2-2.5,1.2c-0.1,0-1.8,0-3.5,0l-1.4,2.6h0.1c0.2,0,0.3,0.1,0.3,0.3V15c0,0.2-0.1,0.3-0.3,0.3h-0.9L39.3,20H38.5"/>
<rect x="27.1" y="9.1" fill="#222222" width="1.5" height="1.5"/>
<rect x="22.6" y="9.1" fill="#222222" width="1.5" height="1.5"/>
<rect x="18.1" y="9.1" fill="#222222" width="1.5" height="1.5"/>
<rect x="13.6" y="9.1" fill="#222222" width="1.5" height="1.5"/>
<rect x="9" y="9.1" fill="#222222" width="1.5" height="1.5"/>
<rect x="4.5" y="9.1" fill="#222222" width="1.5" height="1.5"/>
<rect y="9.1" fill="#222222" width="1.5" height="1.5"/>
</svg>
