<?xml version="1.0" encoding="utf-8"?>
<!-- Generator: Adobe Illustrator 18.1.0, SVG Export Plug-In . SVG Version: 6.00 Build 0)  -->
<!DOCTYPE svg PUBLIC "-//W3C//DTD SVG 1.1//EN" "http://www.w3.org/Graphics/SVG/1.1/DTD/svg11.dtd">
<svg version="1.1" id="Layer_1" xmlns="http://www.w3.org/2000/svg" xmlns:xlink="http://www.w3.org/1999/xlink" x="0px" y="0px"
	 viewBox="0 0 32 32" enable-background="new 0 0 32 32" xml:space="preserve">
<path id="flickr-icon" fill="#FFFFFF" d="M23.5,7.5c-3.3,0-6.2,1.9-7.5,4.6c-1.4-2.8-4.2-4.6-7.5-4.6C3.8,7.5,0,11.3,0,16
	c0,4.7,3.8,8.5,8.5,8.5c3.3,0,6.2-1.9,7.5-4.6c1.4,2.8,4.2,4.6,7.5,4.6c4.7,0,8.5-3.8,8.5-8.5C32,11.3,28.2,7.5,23.5,7.5z
	 M23.5,22.2c-3.4,0-6.2-2.8-6.2-6.2s2.8-6.2,6.2-6.2c3.4,0,6.2,2.8,6.2,6.2C29.7,19.4,27,22.2,23.5,22.2z"/>
</svg>
