<?xml version="1.0" encoding="utf-8"?>
<!-- Generator: Adobe Illustrator 18.1.0, SVG Export Plug-In . SVG Version: 6.00 Build 0)  -->
<!DOCTYPE svg PUBLIC "-//W3C//DTD SVG 1.1//EN" "http://www.w3.org/Graphics/SVG/1.1/DTD/svg11.dtd">
<svg version="1.1" id="Layer_1" xmlns="http://www.w3.org/2000/svg" xmlns:xlink="http://www.w3.org/1999/xlink" x="0px" y="0px"
	 viewBox="0 0 32 32" enable-background="new 0 0 32 32" xml:space="preserve">
<path id="twitter-icon" fill="#FFFFFF" d="M32,6.1c-1.2,0.5-2.4,0.9-3.8,1c1.4-0.8,2.4-2.1,2.9-3.6c-1.3,0.8-2.7,1.3-4.2,1.6
	C25.7,3.8,24,3,22.2,3c-4.2,0-7.4,4-6.4,8.1C10.3,10.8,5.5,8.2,2.2,4.2c-1.7,3-0.9,6.8,2,8.8c-1.1,0-2.1-0.3-3-0.8
	c-0.1,3,2.1,5.9,5.3,6.5c-0.9,0.3-1.9,0.3-3,0.1c0.8,2.6,3.3,4.5,6.1,4.6C7,25.5,3.5,26.5,0,26.1C2.9,27.9,6.4,29,10.1,29
	c12.2,0,19.1-10.3,18.7-19.5C30,8.5,31.1,7.4,32,6.1z"/>
</svg>
