<?xml version="1.0" encoding="utf-8"?>
<!-- Generator: Adobe Illustrator 18.1.0, SVG Export Plug-In . SVG Version: 6.00 Build 0)  -->
<!DOCTYPE svg PUBLIC "-//W3C//DTD SVG 1.1//EN" "http://www.w3.org/Graphics/SVG/1.1/DTD/svg11.dtd">
<svg version="1.1" id="Layer_1" xmlns="http://www.w3.org/2000/svg" xmlns:xlink="http://www.w3.org/1999/xlink" x="0px" y="0px"
	 viewBox="0 0 16 16" enable-background="new 0 0 16 16" xml:space="preserve">
<path fill="#FFFFFF" d="M13.3,8.9c0.1-0.1,0.1-0.3,0-0.3l-0.5-0.5c-0.1-0.1-0.3-0.1-0.3,0l-0.1,0.1l-0.7-2.3c1-1,2-2,2.1-2.1
	c0.5-0.5,1.2-1.8,0.8-2.2c-0.4-0.4-1.7,0.3-2.2,0.8c-0.1,0.1-1.1,1.1-2.1,2.1L7.9,3.7L8,3.6c0.1-0.1,0.1-0.3,0-0.3L7.4,2.7
	c-0.1-0.1-0.3-0.1-0.3,0L6.5,3.2L2.1,1.9L1.7,2.4l5.3,3l1.1,1.1L8,6.6c-0.9,0.9-2.3,2.6-3.3,3.9L1.8,9.8l-0.5,0.5l2.4,1.5
	c-0.2,0.3-0.3,0.5-0.1,0.6c0.1,0.1,0.3,0,0.6-0.1l1.5,2.4l0.5-0.5l-0.7-2.9c1.3-1,2.9-2.4,3.9-3.3l0.1-0.1L10.6,9l3,5.3l0.5-0.5
	l-1.3-4.3L13.3,8.9z"/>
</svg>
