<?xml version="1.0" encoding="utf-8"?>
<!-- Generator: Adobe Illustrator 18.1.0, SVG Export Plug-In . SVG Version: 6.00 Build 0)  -->
<!DOCTYPE svg PUBLIC "-//W3C//DTD SVG 1.1//EN" "http://www.w3.org/Graphics/SVG/1.1/DTD/svg11.dtd">
<svg version="1.1" id="Layer_1" xmlns="http://www.w3.org/2000/svg" xmlns:xlink="http://www.w3.org/1999/xlink" x="0px" y="0px"
	 viewBox="0 0 24 24" enable-background="new 0 0 24 24" xml:space="preserve">
<g>
	<path fill="#FFC327" d="M22.9,24c-0.5,0-0.9-0.1-1.3-0.3c-0.4-0.2-0.9-0.3-1.4-0.3c-0.5,0-1,0.1-1.4,0.3c-0.4,0.2-0.9,0.3-1.4,0.3
		c-0.5,0-0.9-0.1-1.3-0.3c-0.4-0.2-0.9-0.3-1.4-0.3c-0.5,0-1,0.1-1.4,0.3C12.9,23.9,12.5,24,12,24c-0.5,0-0.9-0.1-1.3-0.3
		c-0.4-0.2-0.9-0.3-1.4-0.3c-0.5,0-1,0.1-1.4,0.3C7.5,23.9,7,24,6.5,24c-0.5,0-0.9-0.1-1.3-0.3c-0.4-0.2-0.9-0.3-1.4-0.3
		c-0.5,0-1,0.1-1.4,0.3C2,23.9,1.5,24,1.1,24v-2c0.5,0,0.9-0.1,1.3-0.3c0.4-0.2,0.9-0.3,1.4-0.3c0.5,0,1,0.1,1.4,0.3
		C5.6,21.8,6.1,22,6.5,22c0.5,0,0.9-0.1,1.3-0.3c0.4-0.2,0.9-0.3,1.4-0.3c0.5,0,1,0.1,1.4,0.3c0.4,0.2,0.9,0.3,1.3,0.3
		c0.5,0,0.9-0.1,1.4-0.3c0.4-0.2,0.9-0.3,1.4-0.3c0.5,0,1,0.1,1.4,0.3c0.4,0.2,0.9,0.3,1.3,0.3c0.5,0,0.9-0.1,1.4-0.3
		c0.4-0.2,0.9-0.3,1.4-0.3c0.5,0,1,0.1,1.4,0.3c0.4,0.2,0.9,0.3,1.3,0.3L22.9,24L22.9,24z"/>
	<path fill="#FFC327" d="M15.3,3.6c3.7,1.7,8,6.3,7.4,11.8h-7.4V3.6L15.3,3.6z"/>
	<path fill="#FFC327" d="M21.2,16.6h-3.4H4.6v3c0.2,0,0.4,0.1,0.5,0.2c0.4,0.2,0.9,0.3,1.3,0.3c0.5,0,0.9-0.1,1.3-0.3
		c0.4-0.2,0.9-0.3,1.4-0.3c0.5,0,1,0.1,1.4,0.3c0.4,0.2,0.9,0.3,1.3,0.3c0.5,0,0.9-0.1,1.4-0.3c0.4-0.2,0.9-0.3,1.4-0.3
		c0.5,0,1,0.1,1.4,0.3c0.4,0.2,0.9,0.3,1.3,0.3c0.1,0,0.2,0,0.3,0c0,0,0,0,0,0c0.1,0,0.1,0,0.2,0c0.1,0,0.2,0,0.3-0.1
		c1-0.2,1.6-1,1.6-1l1.9-2.4L21.2,16.6L21.2,16.6L21.2,16.6z"/>
	<path fill="#FFC327" d="M14.2,0c0,0-0.1,0-0.1,0c0,0,0,0,0,0c0,0,0,0,0,0C9.9,5.2,5.8,10.3,1.6,15.4c0,0.1,0,0.2,0.1,0.2
		c4.2,0,8.3,0,12.5,0c0,0,0.1,0,0.1-0.1C14.2,10.3,14.2,5.2,14.2,0C14.2,0.1,14.2,0,14.2,0z"/>
</g>
</svg>
