<?xml version="1.0" encoding="utf-8"?>
<!-- Generator: Adobe Illustrator 18.1.0, SVG Export Plug-In . SVG Version: 6.00 Build 0)  -->
<!DOCTYPE svg PUBLIC "-//W3C//DTD SVG 1.1//EN" "http://www.w3.org/Graphics/SVG/1.1/DTD/svg11.dtd">
<svg version="1.1" id="Layer_1" xmlns="http://www.w3.org/2000/svg" xmlns:xlink="http://www.w3.org/1999/xlink" x="0px" y="0px"
	 viewBox="0 0 24 24" enable-background="new 0 0 24 24" xml:space="preserve">
<path fill="#FFC327" d="M20,13.4c0.1-0.1,0.1-0.4,0-0.5l-0.8-0.8c-0.1-0.1-0.4-0.1-0.5,0l-0.1,0.1l-1.1-3.5c1.5-1.5,3-3,3.1-3.1
	c0.8-0.8,1.8-2.7,1.2-3.3c-0.6-0.6-2.5,0.4-3.3,1.2c-0.1,0.1-1.6,1.6-3.1,3.1l-3.5-1.1l0.1-0.1c0.1-0.1,0.1-0.4,0-0.5L11.1,4
	c-0.1-0.1-0.4-0.1-0.5,0L9.7,4.8l-6.5-2L2.5,3.6l8,4.5l1.6,1.7c0,0-0.1,0.1-0.1,0.1c-1.4,1.4-3.5,3.9-5,5.8l-4.3-1L2,15.4l3.6,2.3
	c-0.3,0.5-0.4,0.8-0.2,0.9c0.1,0.1,0.4,0,0.9-0.2L8.6,22l0.7-0.7l-1-4.3c1.9-1.5,4.4-3.6,5.8-5c0,0,0.1-0.1,0.1-0.1l1.7,1.6l4.5,8
	l0.8-0.8l-2-6.5L20,13.4z"/>
</svg>
