<?xml version="1.0" encoding="utf-8"?>
<!-- Generator: Adobe Illustrator 18.1.0, SVG Export Plug-In . SVG Version: 6.00 Build 0)  -->
<!DOCTYPE svg PUBLIC "-//W3C//DTD SVG 1.1//EN" "http://www.w3.org/Graphics/SVG/1.1/DTD/svg11.dtd">
<svg version="1.1" id="Layer_1" xmlns="http://www.w3.org/2000/svg" xmlns:xlink="http://www.w3.org/1999/xlink" x="0px" y="0px"
	 viewBox="0 0 26 26" enable-background="new 0 0 26 26" xml:space="preserve">
<g>
	<circle fill="#FFC327" cx="18.5" cy="3.9" r="2"/>
	<path fill="#FFC327" d="M22.9,6.1c-0.3-0.3-0.9-0.3-1.2,0l-2,2l-2.2-1.9c0,0-0.1,0-0.1,0C17.4,6.1,17.3,6,17.2,6l-0.3-0.2
		c-0.2-0.1-0.5-0.2-0.8-0.2c-0.1,0-0.2-0.1-0.4-0.1l-3.5,0.3c-0.1,0-0.2,0-0.2,0.1c-0.2,0-0.4,0.1-0.6,0.3L9,8.5
		C8.7,8.9,8.7,9.4,9,9.7s0.9,0.3,1.2,0l2.2-2.3l1.7-0.1l-2.9,4.9l-2.1,3.3c0,0,0,0.1,0,0.1l-4.7-0.9c-0.7-0.1-1.4,0.2-1.5,0.8
		c-0.1,0.6,0.3,1.2,1,1.3l5.8,1.1c0.6,0.1,1.1-0.1,1.4-0.5c0.1-0.1,0.3-0.2,0.4-0.4l1.2-1.9l2.3,2.3l-0.8,5.2
		c-0.1,0.7,0.3,1.4,1,1.5c0.6,0.1,1.2-0.4,1.3-1.1l0.9-5.8c0,0,0,0,0,0c0.2-0.5,0.1-1.1-0.3-1.5l-2.4-2.4l2.9-4.9l1.6,1.4
		c0.2,0.2,0.5,0.2,0.7,0.2c0.3,0,0.5,0,0.7-0.2L23,7.3C23.3,6.9,23.3,6.4,22.9,6.1z"/>
</g>
</svg>
