<?xml version="1.0" encoding="utf-8"?>
<!-- Generator: Adobe Illustrator 18.1.0, SVG Export Plug-In . SVG Version: 6.00 Build 0)  -->
<!DOCTYPE svg PUBLIC "-//W3C//DTD SVG 1.1//EN" "http://www.w3.org/Graphics/SVG/1.1/DTD/svg11.dtd">
<svg version="1.1" id="Layer_1" xmlns="http://www.w3.org/2000/svg" xmlns:xlink="http://www.w3.org/1999/xlink" x="0px" y="0px"
	 viewBox="0 0 26 26" enable-background="new 0 0 26 26" xml:space="preserve">
<g>
	<circle fill="#FFC324" cx="21.5" cy="13.8" r="1.7"/>
	<path fill="#FFC324" d="M22.4,16c0,0-2.1,0-2.4,0l-1.3-1.3L17.2,8C17,7,16,6.2,15,6.2h-2.8c-1.1,0-2.1,0.8-2.3,1.9l-0.6,2.7L9,9
		C8.8,8,7.9,7.2,6.8,7.2H4c-1.3,0-2.3,1-2.3,2.3v4.8c0,0.9,0.6,1.8,1.4,2.1v6.2c0,1,0.8,1.8,1.8,1.8h0.9c1,0,1.8-0.8,1.8-1.8v-10
		l0.7,2.9c0.1,0.6,0.6,0.9,1.2,0.9c0.6,0,1-0.3,1.2-0.9l0.7-3.4v10.5c0,1,0.8,1.8,1.8,1.8h0.9c1,0,1.8-0.8,1.8-1.8V12l0.7,3
		c0.1,0.5,0.5,0.9,0.6,1l2.4,2.4v4.5c0,0.9,0.7,1.6,1.6,1.6h0.5c0.9,0,1.6-0.7,1.6-1.6V21c0.5-0.3,0.9-0.9,0.9-1.6v-1.6
		C24.3,16.8,23.5,16,22.4,16z"/>
	<circle fill="#FFC324" cx="5.4" cy="4.5" r="2.1"/>
	<circle fill="#FFC324" cx="13.7" cy="3.6" r="2.1"/>
</g>
</svg>
