<?xml version="1.0" encoding="utf-8"?>
<!-- Generator: Adobe Illustrator 18.1.0, SVG Export Plug-In . SVG Version: 6.00 Build 0)  -->
<!DOCTYPE svg PUBLIC "-//W3C//DTD SVG 1.1//EN" "http://www.w3.org/Graphics/SVG/1.1/DTD/svg11.dtd">
<svg version="1.1" id="Layer_1" xmlns="http://www.w3.org/2000/svg" xmlns:xlink="http://www.w3.org/1999/xlink" x="0px" y="0px"
	 viewBox="-49 5 130 22" enable-background="new -49 5 130 22" xml:space="preserve">
<path fill="#FFC429" d="M-41.2,8.6c-0.1,0-0.4,0-0.7,0.1h-1.8l1.4,11.4h8.2l6.8-7.7V20h7.4L-5,5h-9.3l-6.4,8.5
	c-0.1,0.2-0.3,0.4-0.4,0.4c-0.1,0-0.3,0.1-0.4,0.1V5h-6.9l-6.3,8.5c-0.1,0.2-0.3,0.4-0.4,0.4c-0.1,0-0.3,0.1-0.4,0.1V5H-49
	c0.7,1.2,1.5,2,2.6,2.5C-45.7,7.9-45,8-44.2,8h5c-0.4,0.2-0.6,0.3-0.8,0.4C-40.3,8.5-40.6,8.5-41.2,8.6z"/>
<path fill="#FFC429" d="M6.8,20l2.9-6.7c0.2-0.5,0.6-0.9,1.2-1.2c0.6-0.3,1.3-0.5,2.2-0.5c0.6,0,0.9,0.1,1.2,0.4
	c0.2,0.3,0.4,0.7,0.4,1c0,0.2,0,0.4-0.1,0.5c0,0.1-0.1,0.3-0.1,0.4l-2.6,6h6.7l2.2-5.6c0.2-0.7,0.4-1.2,0.4-1.7c0-1.5-1-2.6-3.1-3.3
	c-0.7-0.2-1.7-0.4-3.1-0.5H14c-0.4,0-0.8,0-1.3-0.1c-1.7,0-3.3,0.1-4.9,0.1C6.2,9,5,9.3,4.1,9.6L0.2,20H6.8z"/>
<polygon fill="#FFC429" points="-9.4,20 -2.7,20 1.2,10.3 -5.6,10.3 "/>
<path fill="#FFC429" d="M-3.5,8.9C-3,9.2-2.2,9.3-1.2,9.3s1.9-0.1,2.5-0.5C1.8,8.5,2.1,8,2.1,7.4c0-0.9-0.5-1.6-1.4-2
	C0.4,5.3-0.2,5.1-1.1,5.1c-0.7,0-1.3,0.1-1.9,0.4c-0.9,0.4-1.4,1-1.4,1.9C-4.4,8.1-4.1,8.5-3.5,8.9z"/>
<path fill="#FFC429" d="M55,9.3C53.8,9.2,52.3,9,50.6,9c-0.8,0-1.6,0-2.4,0.1c-0.8,0.1-1.4,0.1-2,0.3c-1.1,0.3-1.9,0.8-2.2,1.5
	c-0.1,0.2-0.2,0.6-0.3,1c0,0.4,0.1,0.7,0.2,0.9c0.3,0.7,1,1.4,2,1.9c0.7,0.4,1.5,0.7,2.2,1.1s1.1,0.7,0.9,1.2
	c-0.1,0.4-0.4,0.7-1,0.9c-0.6,0.2-1.3,0.3-2.1,0.3c-1.1,0-2-0.1-3-0.4c-0.9-0.3-1.3-0.7-1.3-1.1v2.6c0,0.1,0.5,0.3,1.4,0.4
	c1,0.1,2.1,0.2,3.3,0.2c2.5,0,4.5-0.2,6.1-0.7c2-0.7,3-1.6,3-2.9c0-0.9-0.9-1.7-2.7-2.4c-1.8-0.7-2.7-1.2-2.7-1.7
	c0-0.5,0.3-0.9,0.8-1.1c0.6-0.2,1.2-0.4,2-0.4c1,0,1.9,0.1,2.7,0.4c0.8,0.3,1.2,0.7,1.3,1.1V9.9C56.9,9.7,56.3,9.5,55,9.3z"/>
<path fill="#FFC429" d="M42,9.3C41.7,9,41.2,9,40.4,9h-7.9c-1.4,0-2.6,0.1-3.4,0.3c-2.5,0.6-4.3,1.7-5.6,3.4
	c-0.3,0.5-0.5,0.9-0.7,1.3c-0.5,1.1-0.7,2-0.7,2.8c0,1,0.3,1.7,0.9,2.2c0.8,0.7,2.1,1,3.9,1c1.5,0,3-0.4,4.3-1.2
	c0.4-0.2,0.9-0.7,1.6-1.2c-0.2,0.5-0.4,0.9-0.5,1.2c-0.4,0.8-1.4,3.6-1.7,3.9c-0.6,0.5-0.9,0.5-1.7,0.5h-72c0,0,1.3,3.4,3.6,3.4
	h70.7c2.2,0,3.9-0.4,5.4-2.5c0.4-0.5,1.4-3.3,1.9-4.1l3.8-9.3c0-0.1,0.1-0.2,0.1-0.3c0.1-0.1,0.1-0.3,0.1-0.4
	C42.5,9.8,42.3,9.5,42,9.3z M34.5,12.7c-0.4,0.9-0.7,1.6-0.8,1.9c-0.3,0.4-0.5,0.8-0.7,1.1c-0.7,0.8-1.4,1.3-2.2,1.5
	c-0.4,0.1-0.8,0.2-1.1,0.2c-0.5,0-0.9-0.1-1-0.4c-0.2-0.3-0.3-0.7-0.3-1.1c0-0.4,0.1-0.9,0.2-1.4c0-0.1,0.1-0.2,0.1-0.4
	c0.5-1,1.4-1.7,2.7-2.2c0.9-0.3,1.8-0.4,2.9-0.4H35C34.7,12,34.6,12.4,34.5,12.7z"/>
<path fill="#FFC429" d="M62.2,22.6c-0.4-0.3-0.7-0.4-1.2-0.4c-0.8,0-1.4,0.1-2,0.1c-0.3,0.1-0.6,0.2-0.8,0.4
	c-0.1-0.2-0.2-0.3-0.4-0.4c-0.4-0.1-0.9-0.1-1.6-0.1c-0.9,0-1.7,0.1-2.2,0.1c-0.4,0.1-0.7,0.1-0.9,0.4l-1.2,3.6h2.2l1-2.5
	c0.1-0.2,0.2-0.4,0.4-0.4c0.2-0.1,0.4-0.2,0.7-0.2c0.2,0,0.3,0.1,0.4,0.1c0.1,0.1,0.1,0.2,0.1,0.4c0,0.1,0,0.1,0,0.2s0,0.1-0.1,0.1
	l-0.9,2.2h2.2l0.9-2.5c0.1-0.1,0.2-0.4,0.4-0.4c0.2-0.1,0.4-0.2,0.7-0.2c0.2,0,0.3,0.1,0.4,0.1c0.1,0.1,0.1,0.2,0.1,0.4
	c0,0.1,0,0.1,0,0.2c0,0.1,0,0.1-0.1,0.1l-0.9,2.2h2.2l0.8-2.3c0.1-0.1,0.1-0.2,0.1-0.4C62.7,23.1,62.6,22.9,62.2,22.6z"/>
<path fill="#FFC429" d="M50.8,22.6c-0.5-0.2-1.1-0.4-1.7-0.4c-1,0-1.8,0.1-2.4,0.3c-0.9,0.3-1.4,0.9-1.6,1.6c0,0.1,0,0.2,0,0.3
	c0,0.6,0.4,1.1,1.1,1.4c0.6,0.3,1.2,0.4,1.8,0.4c0.9,0,1.7-0.1,2.2-0.3c0.9-0.3,1.4-0.8,1.6-1.7c0.1-0.1,0.1-0.3,0.1-0.4
	C51.9,23.4,51.6,23,50.8,22.6z M49.6,24.4c-0.1,0.2-0.3,0.4-0.6,0.7s-0.5,0.3-0.8,0.3c-0.1,0-0.1,0-0.2,0c-0.3-0.1-0.4-0.4-0.4-0.7
	c0-0.2,0.1-0.4,0.1-0.7c0.1-0.2,0.3-0.4,0.6-0.7c0.3-0.2,0.5-0.3,0.7-0.3c0.1,0,0.1,0,0.2,0.1c0.3,0.1,0.4,0.4,0.4,0.7
	C49.8,24,49.7,24.2,49.6,24.4z"/>
<path fill="#FFC429" d="M38.6,24.8c-0.2-0.1-0.5-0.2-0.9-0.2c-0.2,0-0.5,0.1-0.7,0.1c-0.3,0.1-0.5,0.4-0.5,0.8
	c0,0.3,0.1,0.4,0.3,0.6c0.2,0.1,0.5,0.2,0.9,0.2c0.4,0,0.7-0.1,0.9-0.2c0.2-0.1,0.4-0.4,0.4-0.6C39,25.2,38.8,25,38.6,24.8z"/>
<path fill="#FFC429" d="M44.5,22.5c-0.1,0-0.2-0.1-0.4-0.1c-0.4-0.1-0.9-0.1-1.4-0.1c-0.3,0-0.6,0-0.9,0.1c-0.3,0.1-0.5,0.1-0.7,0.2
	c-0.5,0.2-0.9,0.6-1.2,1.1c-0.2,0.4-0.3,0.7-0.3,1c0,0.4,0.1,0.7,0.4,1c0.4,0.4,0.9,0.7,1.7,0.7c0.6,0,1.1-0.1,1.5-0.1
	c0.1,0,0.3-0.1,0.5-0.1l0.7-0.8c-0.3,0-0.4,0-0.6,0.1c-0.2,0.1-0.4,0.2-0.5,0.2c-0.4,0.1-0.7,0.1-0.9,0.1s-0.4-0.1-0.7-0.1
	c-0.1-0.1-0.2-0.3-0.2-0.5c0-0.7,0.3-1.2,0.8-1.5c0.4-0.2,0.9-0.4,1.5-0.4c0.3,0,0.5,0,0.7,0.1c0.1,0.1,0.2,0.1,0.3,0.3v-0.9
	C44.8,22.6,44.7,22.5,44.5,22.5z"/>
<path fill="#FFC429" d="M63.1,25.5c0-0.4,0.1-0.6,0.5-0.7c0.2-0.1,0.5-0.1,0.7-0.1c0.4,0,0.7,0.1,0.9,0.2c0.2,0.1,0.4,0.4,0.4,0.7
	c0,0.2-0.1,0.4-0.4,0.6c-0.2,0.1-0.6,0.2-0.9,0.2c-0.4,0-0.7-0.1-0.9-0.2C63.2,26,63.1,25.8,63.1,25.5z"/>
<path fill="#FFC429" d="M69.8,25.9c-0.5,0.3-1,0.4-1.5,0.4c-0.7,0-1.1-0.1-1.4-0.4c-0.2-0.2-0.4-0.4-0.4-0.8c0-0.3,0.1-0.7,0.3-1
	c0.1-0.1,0.1-0.3,0.2-0.4c0.4-0.6,1.1-1,2-1.2c0.3-0.1,0.7-0.1,1.2-0.1H73c0.3,0,0.5,0,0.6,0.1c0.1,0.1,0.1,0.1,0.1,0.3
	c0,0.1,0,0.1,0,0.1c0,0.1-0.1,0.1-0.1,0.1l-1.3,3.3H70l0.4-0.8C70.2,25.7,69.9,25.8,69.8,25.9z M70.9,23.7c0-0.1,0.1-0.2,0.1-0.4H71
	c0,0-0.1,0-0.1,0c-0.4,0-0.7,0.1-1,0.1c-0.4,0.1-0.8,0.4-0.9,0.8c0,0.1-0.1,0.1-0.1,0.1c-0.1,0.2-0.1,0.4-0.1,0.5s0,0.3,0.1,0.4
	c0.1,0.1,0.2,0.1,0.4,0.1c0.1,0,0.2,0,0.4-0.1c0.3-0.1,0.5-0.3,0.8-0.6c0.1-0.1,0.1-0.2,0.3-0.4C70.7,24.2,70.8,24,70.9,23.7z"/>
<path fill="#FFC429" d="M76.6,26c-0.4,0.2-0.9,0.3-1.4,0.3c-0.7,0-1.1-0.1-1.3-0.4c-0.2-0.2-0.3-0.5-0.3-0.9c0-0.2,0-0.4,0.1-0.6
	c0-0.1,0-0.1,0.1-0.2l0.7-1.8h2.4l-0.8,2c-0.1,0.2-0.1,0.4-0.1,0.5c0,0.2,0.1,0.4,0.2,0.5c0.1,0.1,0.2,0.1,0.3,0.1
	c0.4,0,0.7-0.1,1-0.4c0.1-0.1,0.1-0.2,0.3-0.4l0.9-2.2H81l-1.5,3.9h-2.4l0.2-0.5C76.9,25.9,76.7,26,76.6,26z"/>
</svg>
