<?xml version="1.0" encoding="utf-8"?>
<!-- Generator: Adobe Illustrator 18.1.1, SVG Export Plug-In . SVG Version: 6.00 Build 0)  -->
<!DOCTYPE svg PUBLIC "-//W3C//DTD SVG 1.1//EN" "http://www.w3.org/Graphics/SVG/1.1/DTD/svg11.dtd">
<svg version="1.1" id="Layer_1" xmlns="http://www.w3.org/2000/svg" xmlns:xlink="http://www.w3.org/1999/xlink" x="0px" y="0px"
	 viewBox="0 0 44 44" enable-background="new 0 0 44 44" xml:space="preserve">
<g>
	<g>
		<path fill="#FFC327" d="M40,2c1.1,0,2,0.9,2,2v36c0,1.1-0.9,2-2,2H4c-1.1,0-2-0.9-2-2V4c0-1.1,0.9-2,2-2H40 M40,0H4
			C1.8,0,0,1.8,0,4v36c0,2.2,1.8,4,4,4h36c2.2,0,4-1.8,4-4V4C44,1.8,42.2,0,40,0L40,0z"/>
	</g>
	<path fill="none" stroke="#FFC327" stroke-width="2" stroke-miterlimit="10" d="M34,19.5h-9.5V10c0-1.1-0.9-2-2-2h-1
		c-1.1,0-2,0.9-2,2v9.5H10c-1.1,0-2,0.9-2,2v1c0,1.1,0.9,2,2,2h9.5V34c0,1.1,0.9,2,2,2h1c1.1,0,2-0.9,2-2v-9.5H34c1.1,0,2-0.9,2-2
		v-1C36,20.4,35.1,19.5,34,19.5z"/>
</g>
</svg>
