<?xml version="1.0" encoding="utf-8"?>
<!-- Generator: Adobe Illustrator 18.1.1, SVG Export Plug-In . SVG Version: 6.00 Build 0)  -->
<!DOCTYPE svg PUBLIC "-//W3C//DTD SVG 1.1//EN" "http://www.w3.org/Graphics/SVG/1.1/DTD/svg11.dtd">
<svg version="1.1" id="Layer_1" xmlns="http://www.w3.org/2000/svg" xmlns:xlink="http://www.w3.org/1999/xlink" x="0px" y="0px"
	 viewBox="0 0 64 47.4" enable-background="new 0 0 64 47.4" xml:space="preserve">
<g>
	<g>
		<path fill="#FFC327" d="M60,2c1.1,0,2,0.9,2,2v31c0,1.1-0.9,2-2,2H25.7l-7.8,7.8c-0.4,0.4-0.9,0.6-1.4,0.6s-1-0.2-1.4-0.6L7.3,37
			H4c-1.1,0-2-0.9-2-2V4c0-1.1,0.9-2,2-2H60 M60,0H4C1.8,0,0,1.8,0,4v31c0,2.2,1.8,4,4,4h2.5l7.2,7.2c0.8,0.8,1.8,1.2,2.8,1.2
			s2.1-0.4,2.8-1.2l7.2-7.2H60c2.2,0,4-1.8,4-4V4C64,1.8,62.2,0,60,0L60,0z"/>
	</g>
	<g>
		<path fill="#FFC327" d="M50,6H6C5.5,6,5,6.5,5,7s0.5,1,1,1h44c0.5,0,1-0.5,1-1S50.5,6,50,6L50,6z"/>
	</g>
	<g>
		<path fill="#FFC327" d="M46.7,11H6c-0.5,0-1,0.5-1,1s0.5,1,1,1h40.7c0.5,0,1-0.5,1-1S47.2,11,46.7,11L46.7,11z"/>
	</g>
	<g>
		<path fill="#FFC327" d="M48.5,16H6c-0.5,0-1,0.5-1,1s0.5,1,1,1h42.5c0.5,0,1-0.5,1-1S49.1,16,48.5,16L48.5,16z"/>
	</g>
	<g>
		<path fill="#FFC327" d="M56.1,21H6c-0.5,0-1,0.5-1,1s0.5,1,1,1h50.1c0.5,0,1-0.5,1-1S56.6,21,56.1,21L56.1,21z"/>
	</g>
	<g>
		<path fill="#FFC327" d="M32.8,26H6c-0.5,0-1,0.5-1,1s0.5,1,1,1h26.8c0.5,0,1-0.5,1-1S33.4,26,32.8,26L32.8,26z"/>
	</g>
</g>
</svg>
