<?xml version="1.0" encoding="utf-8"?>
<!-- Generator: Adobe Illustrator 18.1.1, SVG Export Plug-In . SVG Version: 6.00 Build 0)  -->
<!DOCTYPE svg PUBLIC "-//W3C//DTD SVG 1.1//EN" "http://www.w3.org/Graphics/SVG/1.1/DTD/svg11.dtd">
<svg version="1.1" id="Layer_1" xmlns="http://www.w3.org/2000/svg" xmlns:xlink="http://www.w3.org/1999/xlink" x="0px" y="0px"
	 viewBox="0 0 69.7 32.4" enable-background="new 0 0 69.7 32.4" xml:space="preserve">
<g>
	<g>
		<path fill="#FFC327" d="M65.7,2c1.1,0,2,0.9,2,2v24.4c0,1.1-0.9,2-2,2H4c-1.1,0-2-0.9-2-2V4c0-1.1,0.9-2,2-2H65.7 M65.7,0H4
			C1.8,0,0,1.8,0,4v24.4c0,2.2,1.8,4,4,4h61.7c2.2,0,4-1.8,4-4V4C69.7,1.8,67.9,0,65.7,0L65.7,0z"/>
	</g>
	<circle fill="none" stroke="#FFC327" stroke-width="2" stroke-miterlimit="10" cx="34.8" cy="14.3" r="6.3"/>
	<path fill="none" stroke="#FFC327" stroke-width="2" stroke-miterlimit="10" d="M48.5,31.4c-0.3-5.8-4.2-10.6-9.5-12.2
		c-1.1,1-2.5,1.5-4.1,1.5s-3-0.6-4.1-1.5c-5.3,1.7-9.2,6.5-9.5,12.2H48.5z"/>
	<text transform="matrix(1 0 0 1 4.0002 9.3362)" fill="#FEC328" font-family="'Helvetica'" font-size="7.0054">$10</text>
</g>
</svg>
