<?xml version="1.0" encoding="utf-8"?>
<!-- Generator: Adobe Illustrator 18.1.1, SVG Export Plug-In . SVG Version: 6.00 Build 0)  -->
<!DOCTYPE svg PUBLIC "-//W3C//DTD SVG 1.1//EN" "http://www.w3.org/Graphics/SVG/1.1/DTD/svg11.dtd">
<svg version="1.1" id="Layer_1" xmlns="http://www.w3.org/2000/svg" xmlns:xlink="http://www.w3.org/1999/xlink" x="0px" y="0px"
	 viewBox="0 0 100 35" enable-background="new 0 0 100 35" xml:space="preserve">
<g>
	<g>
		<path fill="#FFC327" d="M99,33H1c-0.5,0-1,0.5-1,1s0.5,1,1,1h98c0.5,0,1-0.5,1-1S99.5,33,99,33L99,33z"/>
	</g>
	<path fill="#FFC327" d="M50,10c0.5,0,1-0.5,1-1V1c0-0.5-0.5-1-1-1s-1,0.5-1,1v8C49,9.5,49.5,10,50,10z"/>
	<path fill="#FFC327" d="M31.6,14.2c0.2,0.3,0.5,0.5,0.9,0.5c0.2,0,0.3,0,0.5-0.1c0.5-0.3,0.6-0.9,0.4-1.4l-4-6.9
		c-0.2-0.3-0.5-0.5-0.9-0.5c-0.2,0-0.3,0-0.5,0.1c-0.5,0.3-0.6,0.9-0.4,1.4L31.6,14.2z"/>
	<path fill="#FFC327" d="M12.3,23.4l6.9,4c0.2,0.1,0.3,0.1,0.5,0.1c0.3,0,0.7-0.2,0.9-0.5c0.3-0.5,0.1-1.1-0.4-1.4l-6.9-4
		c-0.2-0.1-0.3-0.1-0.5-0.1c-0.3,0-0.7,0.2-0.9,0.5C11.6,22.5,11.8,23.1,12.3,23.4z"/>
	<path fill="#FFC327" d="M80.3,27.5c0.2,0,0.3,0,0.5-0.1l6.9-4c0.5-0.3,0.6-0.9,0.4-1.4c-0.2-0.3-0.5-0.5-0.9-0.5
		c-0.2,0-0.3,0-0.5,0.1l-6.9,4c-0.5,0.3-0.6,0.9-0.4,1.4C79.6,27.3,80,27.5,80.3,27.5z"/>
	<path fill="#FFC327" d="M67,14.6c0.2,0.1,0.3,0.1,0.5,0.1c0.3,0,0.7-0.2,0.9-0.5l4-6.9c0.3-0.5,0.1-1.1-0.4-1.4
		c-0.2-0.1-0.3-0.1-0.5-0.1c-0.3,0-0.7,0.2-0.9,0.5l-4,6.9C66.4,13.7,66.5,14.3,67,14.6z"/>
	<path fill="none" d="M50,16c-7.5,0-14.5,2.9-19.8,8.2c-3.1,3.1-5.4,6.8-6.7,10.8h53c-1.4-4-3.6-7.7-6.7-10.8
		C64.5,18.9,57.5,16,50,16z"/>
	<path fill="#FFC327" d="M30.2,24.2C35.5,18.9,42.5,16,50,16s14.5,2.9,19.8,8.2c3.1,3.1,5.4,6.8,6.7,10.8h2.1
		c-1.4-4.5-3.9-8.7-7.4-12.2C65.4,16.9,57.7,14,50,14s-15.4,2.9-21.2,8.8c-3.5,3.5-6,7.7-7.4,12.2h2.1C24.8,31,27.1,27.3,30.2,24.2z
		"/>
</g>
</svg>
