<?xml version="1.0" encoding="utf-8"?>
<!-- Generator: Adobe Illustrator 18.1.1, SVG Export Plug-In . SVG Version: 6.00 Build 0)  -->
<!DOCTYPE svg PUBLIC "-//W3C//DTD SVG 1.1//EN" "http://www.w3.org/Graphics/SVG/1.1/DTD/svg11.dtd">
<svg version="1.1" id="Layer_1" xmlns="http://www.w3.org/2000/svg" xmlns:xlink="http://www.w3.org/1999/xlink" x="0px" y="0px"
	 viewBox="0 0 30.8 40" enable-background="new 0 0 30.8 40" xml:space="preserve">
<g>
	<path fill="#FFC327" d="M4.9,39.8L4.9,39.8c-0.5,0.1-1-0.3-1.1-0.9L0,1.1c-0.1-0.5,0.3-1,0.9-1.1l0,0c0.5-0.1,1,0.3,1.1,0.9
		l3.8,37.8C5.9,39.3,5.5,39.7,4.9,39.8z"/>
	<path fill="#FFC327" d="M25.9,39.8L25.9,39.8c0.5,0.1,1-0.3,1.1-0.9l3.8-37.8c0.1-0.5-0.3-1-0.9-1.1l0,0c-0.5-0.1-1,0.3-1.1,0.9
		L25,38.7C24.9,39.3,25.4,39.7,25.9,39.8z"/>
	<path fill="#FFC327" d="M26,40H5c-0.5,0-1-0.5-1-1l0,0c0-0.5,0.4-1,1-1h21c0.5,0,1,0.5,1,1l0,0C27,39.5,26.6,40,26,40z"/>
	<path fill="none" stroke="#FFC327" stroke-width="2" stroke-miterlimit="10" d="M3,11.4c0,0,6.2-1.9,13.3-1.3s7,1.2,13.2,0.9"/>
</g>
</svg>
